<svg xmlns="http://www.w3.org/2000/svg" width="24" height="24" viewBox="0 0 24 24" fill="none" class=""><path d="M11.0293 14.7883C11.0293 15.6251 10.3517 16.3024 9.5147 16.3024C8.67823 16.3024 8 15.6251 8 14.7883C8 13.9517 8.67811 13.2734 9.5147 13.2734C10.3517 13.2734 11.0293 13.9516 11.0293 14.7883ZM11.0293 8.21145C11.0293 9.04792 10.3517 9.72628 9.5147 9.72628C8.67823 9.72628 8 9.04804 8 8.21145C8 7.37535 8.67811 6.69663 9.5147 6.69663C10.3517 6.69663 11.0293 7.37523 11.0293 8.21145ZM12.8097 3C14.7077 5.21166 15.847 8.40396 15.847 11.4997C15.847 14.5957 14.7077 17.7886 12.8097 20L11.5593 19.0736C12.8979 16.7092 13.5688 14.5199 13.5688 11.4998C13.5688 8.48069 12.8979 6.29118 11.5593 3.92605L12.8097 3Z" fill="currentColor"></path></svg>
