<?xml version="1.0" encoding="iso-8859-1"?>
<!-- Generator: Adobe Illustrator 19.0.0, SVG Export Plug-In . SVG Version: 6.00 Build 0)  -->
<svg version="1.1" id="Layer_1" xmlns="http://www.w3.org/2000/svg" xmlns:xlink="http://www.w3.org/1999/xlink" x="0px" y="0px"
	 viewBox="0 0 512 512" style="enable-background:new 0 0 512 512;" xml:space="preserve">
<g>
	<g>
		<path d="M512,194.829c0-81.106-65.984-147.09-147.09-147.09H147.09C65.984,47.74,0,113.724,0,194.83
			c0,23.95,19.485,43.435,43.435,43.435h41.46l-30.018,67.978c-10.608,24.024-15.987,49.521-15.987,75.783v27.854
			c0,29.987,24.396,54.383,54.383,54.383h325.446c29.988,0,54.384-24.396,54.384-54.383v-27.854
			c0-26.263-5.379-51.759-15.988-75.783l-30.018-67.978h41.467C492.515,238.264,512,218.78,512,194.829z M147.09,81.275H364.91
			v0.001c47.234,0,87.818,28.992,104.909,70.112h-96.639c-8.259-8.549-19.828-13.881-32.626-13.881H171.446
			c-12.821,0-24.409,5.353-32.672,13.929c-0.322-0.018-0.641-0.049-0.967-0.049H42.182C59.272,110.266,99.857,81.275,147.09,81.275z
			 M43.435,204.727c-5.458,0-9.898-4.439-9.898-9.898c0-3.337,0.153-6.639,0.437-9.904h92.081v12.943
			c0,3.782-3.078,6.858-6.859,6.858H43.435z M439.567,382.023v27.854c0,11.494-9.351,20.846-20.847,20.846H93.273
			c-11.494,0-20.846-9.351-20.846-20.846v-27.854c0-21.567,4.417-42.506,13.129-62.235l36.035-81.601
			c21.164-1.244,38.002-18.849,38.002-40.318v-14.968c0-6.537,5.318-11.855,11.854-11.855h169.106
			c6.537,0,11.854,5.318,11.854,11.855v14.968c0,21.467,16.833,39.071,37.994,40.318l36.035,81.603
			C435.15,339.517,439.567,360.455,439.567,382.023z M392.805,204.728v-0.001c-3.782,0-6.859-3.076-6.859-6.858v-12.943h92.081
			c0.284,3.265,0.437,6.567,0.437,9.905c0,5.458-4.44,9.898-9.898,9.898H392.805z"/>
	</g>
</g>
<g>
	<g>
		<circle cx="197.444" cy="255.295" r="18.552"/>
	</g>
</g>
<g>
	<g>
		<circle cx="256" cy="255.295" r="18.552"/>
	</g>
</g>
<g>
	<g>
		<circle cx="314.556" cy="255.295" r="18.552"/>
	</g>
</g>
<g>
	<g>
		<circle cx="197.444" cy="311.682" r="18.552"/>
	</g>
</g>
<g>
	<g>
		<circle cx="256" cy="311.682" r="18.552"/>
	</g>
</g>
<g>
	<g>
		<circle cx="314.556" cy="311.682" r="18.552"/>
	</g>
</g>
<g>
	<g>
		<circle cx="197.444" cy="368.069" r="18.552"/>
	</g>
</g>
<g>
	<g>
		<circle cx="256" cy="368.069" r="18.552"/>
	</g>
</g>
<g>
	<g>
		<circle cx="314.556" cy="368.069" r="18.552"/>
	</g>
</g>
<g>
</g>
<g>
</g>
<g>
</g>
<g>
</g>
<g>
</g>
<g>
</g>
<g>
</g>
<g>
</g>
<g>
</g>
<g>
</g>
<g>
</g>
<g>
</g>
<g>
</g>
<g>
</g>
<g>
</g>
</svg>
