<?xml version="1.0" encoding="iso-8859-1"?>
<!-- Generator: Adobe Illustrator 19.0.0, SVG Export Plug-In . SVG Version: 6.00 Build 0)  -->
<svg version="1.1" id="Capa_1" xmlns="http://www.w3.org/2000/svg" xmlns:xlink="http://www.w3.org/1999/xlink" x="0px" y="0px"
	 viewBox="0 0 512 512" style="enable-background:new 0 0 512 512;" xml:space="preserve">
   <defs>
      <linearGradient id="Gradient2" x1="1" x2="0" y1="0" y2="1">
        <stop offset="0%" stop-color="#08dfc6"/>
        <stop offset="100%" stop-color="#005249"/>
      </linearGradient>
  </defs>
<polygon points="256,0 295.989,55.172 353.986,19.509 369.788,85.716 437.054,74.946 426.284,142.212
	492.491,158.014 456.828,216.011 512,256 456.828,295.989 492.491,353.986 426.284,369.788 437.054,437.054 369.788,426.284
	353.986,492.491 295.989,456.828 256,512 216.011,456.828 158.014,492.491 142.212,426.284 74.946,437.054 85.716,369.788
	19.509,353.986 55.172,295.989 0,256 55.172,216.011 19.509,158.014 85.716,142.212 74.946,74.946 142.212,85.716 158.014,19.509
	216.011,55.172 " fill="url(#Gradient2)"/>
<rect x="123.586" y="203.034" style="fill:#6fddd2;" width="70.621" height="176.552"/>
<rect x="123.586" y="317.793" style="fill:#37bbae;" width="70.621" height="61.793"/>
<path style="fill:#e4fffc;" d="M273.655,88.276v61.793l-35.31,35.31h79.448v-52.966C317.793,108.041,298.028,88.276,273.655,88.276z
	"/>
<path style="fill:#fff;" d="M361.931,185.379H238.345l-44.138,44.138v132.414h172.138c12.191,0,22.069-9.878,22.069-22.069l0,0
	c0-12.191-9.878-22.069-22.069-22.069h8.828c12.191,0,22.069-9.878,22.069-22.069l0,0c0-12.191-9.878-22.069-22.069-22.069l0,0
	c12.191,0,22.069-9.878,22.069-22.069l0,0c0-12.191-9.878-22.069-22.069-22.069H384c12.191,0,22.069-9.878,22.069-22.069l0,0
	c0-12.191-9.878-22.069-22.069-22.069H361.931z"/>
<rect x="150.069" y="335.448" style="fill:#fff;" width="17.655" height="17.655"/>
<g>
	<path style="fill:#e4fffc;" d="M392.121,186.968c-8.519,14.663-17.796,28.866-27.807,42.549H384
		c12.191-0.053,22.025-9.984,21.972-22.166C405.928,198.374,400.455,190.314,392.121,186.968z"/>
	<path style="fill:#e4fffc;" d="M232.519,361.931h133.826c12.191,0,22.069-9.878,22.069-22.069c0-12.191-9.878-22.069-22.069-22.069
		h8.828c12.191,0,22.069-9.878,22.069-22.069c0-12.191-9.878-22.069-22.069-22.069l0,0c12.191,0,22.069-9.878,22.069-22.069
		c0-12.191-9.878-22.069-22.069-22.069h-10.858C326.885,279.684,282.509,324.273,232.519,361.931z"/>
</g>
<g>
</g>
<g>
</g>
<g>
</g>
<g>
</g>
<g>
</g>
<g>
</g>
<g>
</g>
<g>
</g>
<g>
</g>
<g>
</g>
<g>
</g>
<g>
</g>
<g>
</g>
<g>
</g>
<g>
</g>
</svg>
