<svg xmlns="http://www.w3.org/2000/svg" style="display: none;">
  <symbol id="appliances-icon" viewBox="0 0 24 24">
  <path
  fill-rule="evenodd"
  clip-rule="evenodd"
  d="M6.19999 5.7C6.19999 5.53431 6.3343 5.4 6.49999 5.4H17.5C17.6657 5.4 17.8 5.53431 17.8 5.7V8H6.19999V5.7ZM4.79999 8V5.7C4.79999 4.76112 5.5611 4 6.49999 4H17.5C18.4389 4 19.2 4.76112 19.2 5.7V8V8.7V18.7C19.2 19.6389 18.4389 20.4 17.5 20.4H6.49999C5.5611 20.4 4.79999 19.6389 4.79999 18.7V8.7V8ZM6.19999 9.4V18.7C6.19999 18.8657 6.3343 19 6.49999 19H17.5C17.6657 19 17.8 18.8657 17.8 18.7V9.4H6.19999ZM12 16.55C13.2979 16.55 14.35 15.4979 14.35 14.2C14.35 12.9021 13.2979 11.85 12 11.85C10.7021 11.85 9.64999 12.9021 9.64999 14.2C9.64999 15.4979 10.7021 16.55 12 16.55ZM12 17.95C14.0711 17.95 15.75 16.2711 15.75 14.2C15.75 12.1289 14.0711 10.45 12 10.45C9.92892 10.45 8.24999 12.1289 8.24999 14.2C8.24999 16.2711 9.92892 17.95 12 17.95ZM13.3 6.7C13.3 6.3134 13.6134 6 14 6H16C16.3866 6 16.7 6.3134 16.7 6.7C16.7 7.0866 16.3866 7.4 16 7.4H14C13.6134 7.4 13.3 7.0866 13.3 6.7ZM7.99999 6C7.61339 6 7.29999 6.3134 7.29999 6.7C7.29999 7.0866 7.61339 7.4 7.99999 7.4H9.99999C10.3866 7.4 10.7 7.0866 10.7 6.7C10.7 6.3134 10.3866 6 9.99999 6H7.99999Z"
  fill="currentColor"
></path>
</symbol>
<symbol id="electronics-icon" viewBox="0 0 24 24">
  <path
  fill-rule="evenodd"
  clip-rule="evenodd"
  d="M8.5 4.6998C7.78203 4.6998 7.2 5.28183 7.2 5.9998V17.9998C7.2 18.7178 7.78203 19.2998 8.5 19.2998H15.5C16.218 19.2998 16.8 18.7178 16.8 17.9998V5.9998C16.8 5.28183 16.218 4.6998 15.5 4.6998H8.5ZM5.8 5.9998C5.8 4.50864 7.00883 3.2998 8.5 3.2998H15.5C16.9912 3.2998 18.2 4.50864 18.2 5.9998V17.9998C18.2 19.491 16.9912 20.6998 15.5 20.6998H8.5C7.00883 20.6998 5.8 19.491 5.8 17.9998V5.9998ZM9.8 6.9998C9.8 6.61321 10.1134 6.2998 10.5 6.2998H13.5C13.8866 6.2998 14.2 6.61321 14.2 6.9998C14.2 7.3864 13.8866 7.6998 13.5 7.6998H10.5C10.1134 7.6998 9.8 7.3864 9.8 6.9998ZM12 17.9998C12.6904 17.9998 13.25 17.4402 13.25 16.7498C13.25 16.0594 12.6904 15.4998 12 15.4998C11.3096 15.4998 10.75 16.0594 10.75 16.7498C10.75 17.4402 11.3096 17.9998 12 17.9998Z"
  fill="currentColor"
></path>
</symbol>
<symbol id="computers-peripherals-icon" viewBox="0 0 24 24">
  <path
  fill-rule="evenodd"
  clip-rule="evenodd"
  d="M5.4 14.6V6.4H18.6V14.6H5.4ZM4 6C4 5.44771 4.44772 5 5 5H19C19.5523 5 20 5.44772 20 6V15C20 15.5523 19.5523 16 19 16H14.2V18.3H15.5C15.8866 18.3 16.2 18.6134 16.2 19C16.2 19.3866 15.8866 19.7 15.5 19.7H8.5C8.1134 19.7 7.8 19.3866 7.8 19C7.8 18.6134 8.1134 18.3 8.5 18.3H9.8V16H5C4.44772 16 4 15.5523 4 15V6ZM11.2 18.3H12.8V16H11.2V18.3ZM10.495 8.49497C10.7683 8.22161 10.7683 7.77839 10.495 7.50503C10.2216 7.23166 9.77839 7.23166 9.50502 7.50503L6.50503 10.505C6.23166 10.7784 6.23166 11.2216 6.50503 11.495C6.77839 11.7683 7.22161 11.7683 7.49497 11.495L10.495 8.49497ZM11.495 10.005C11.7683 10.2784 11.7683 10.7216 11.495 10.995L9.99497 12.495C9.72161 12.7683 9.27839 12.7683 9.00503 12.495C8.73166 12.2216 8.73166 11.7784 9.00503 11.505L10.505 10.005C10.7784 9.73166 11.2216 9.73166 11.495 10.005Z"
  fill="currentColor"
></path>
</symbol>
<symbol id="furniture-icon" viewBox="0 0 24 24">
  <path d="M18.3333 16.313L21 16.3333V10.9999C21 10.3095 20.357 9.66667 19.6667 9.66667C18.9763 9.66667 18.3333 10.3095 18.3333 10.9999V16.313ZM18.3333 16.313V17.6667M18.3333 16.313V15.6665C18.3333 13.8256 16.8409 12.3332 15 12.3332H9C7.15905 12.3332 5.66667 13.8256 5.66667 15.6665V16.3332M18.3333 16.313L5.66667 16.3332M5.66667 16.3332V10.9999M5.66667 16.3332H3V10.9999C3 10.3095 3.64298 9.66653 4.33333 9.66653C5.02369 9.66653 5.66667 10.3095 5.66667 10.9999M5.66667 16.3332V17.6665M5.66667 10.9999V9.66653C5.66667 7.82559 6.49238 7 8.33333 7H11C11.9205 7 12 7.74619 12 8.66667M12 8.66667V9.66653M12 8.66667C12 7.74619 12.0795 7 13 7H15C16.8409 7 18.3333 7.82559 18.3333 9.66653V12.3333" fill="transparent" stroke="currentColor" stroke-width="1.4" stroke-linecap="round" stroke-linejoin="round"></path>
</symbol>
<symbol id="hobbies-icon" viewBox="0 0 24 24">
  <path
    fill-rule="evenodd"
    clip-rule="evenodd"
    d="M19.0519 0.962067C19.3488 0.714573 19.7902 0.754699 20.0377 1.05169L22.5377 4.05169C22.6581 4.19618 22.7153 4.38304 22.6964 4.57017C22.6775 4.75729 22.5841 4.92894 22.4373 5.04643L19.9373 7.04642C19.8131 7.14571 19.6589 7.19981 19.5 7.19981H18.2813L14.9717 10.3715L16.2297 11.523C16.9991 11.9699 17.1957 12.8799 16.9599 13.5873C16.9538 13.6057 16.9469 13.6239 16.9393 13.6417C16.6506 14.3153 16.0383 15.0838 15.1174 15.314C14.8537 15.3799 14.505 15.5199 14.3882 15.5782C14.3788 15.583 14.3692 15.5875 14.3595 15.5918C13.887 15.8018 13.5555 16.2921 13.502 16.7743L13.4901 16.8822C13.4172 17.5465 13.321 18.4223 12.9565 19.1514L12.9503 19.1637L12.9502 19.1637C11.9911 20.9905 10.2676 21.9256 8.42897 22.0159C6.60384 22.1055 4.67003 21.3678 3.19069 19.8884C1.71136 18.4091 0.97368 16.4753 1.06326 14.6502C1.1535 12.8115 2.08864 11.088 3.91545 10.129L3.92772 10.1225L3.92778 10.1227C4.65687 9.7581 5.53269 9.66198 6.19696 9.58907L6.30488 9.57717C6.78365 9.52398 7.27044 9.19676 7.48285 8.72961C7.67992 8.24416 8.04801 7.69643 8.42511 7.31933C9.99534 5.7491 12.4287 5.50416 14.3719 6.58344L15.8 5.20294V3.99982C15.8 3.79208 15.8923 3.59506 16.0519 3.46207L19.0519 0.962067ZM13.3021 7.61758C11.9484 7.05082 10.4102 7.31412 9.41506 8.30928C9.16141 8.56293 8.89857 8.9598 8.77692 9.26392C8.77366 9.27209 8.77023 9.2802 8.76666 9.28824C8.34216 10.2434 7.4049 10.8636 6.45949 10.9686C5.71006 11.0519 5.05874 11.1244 4.55986 11.3719C3.21847 12.0789 2.52984 13.3278 2.46157 14.7188C2.39253 16.1255 2.96346 17.6813 4.18064 18.8985C5.39782 20.1157 6.95363 20.6866 8.36035 20.6176C9.75136 20.5493 11.0003 19.8607 11.7073 18.5192C11.9547 18.0204 12.0273 17.3691 12.1105 16.6196C12.2151 15.6789 12.8297 14.7462 13.7769 14.3188C13.9838 14.2174 14.4159 14.0463 14.7778 13.9558C15.1176 13.8709 15.4493 13.5429 15.639 13.1209C15.6636 13.0313 15.659 12.9421 15.6347 12.8722C15.6105 12.8025 15.5688 12.754 15.5069 12.7231C15.4489 12.6941 15.3952 12.6572 15.3473 12.6133L13.9588 11.3422L12.4844 12.7552C12.3501 12.8839 12.1701 12.9539 11.9841 12.9496C11.7981 12.9454 11.6215 12.8673 11.4932 12.7327L10.303 11.4833C10.0377 11.2048 10.0467 10.7645 10.3233 10.4972L13.3021 7.61758ZM15.9837 6.97253C16.0661 7.06247 16.1717 7.13081 16.291 7.16808L12.0226 11.2587L11.7959 11.0207L15.9837 6.97253ZM17.2 5.79981V5.50742V5.49208V4.32768L19.4104 2.48571L21.005 4.39933L19.2544 5.79981H17.2ZM3.93545 15.6951C4.20881 15.4217 4.65203 15.4217 4.92539 15.6951L7.30468 18.0744C7.57804 18.3477 7.57804 18.791 7.30468 19.0643C7.03131 19.3377 6.58809 19.3377 6.31473 19.0643L3.93545 16.685C3.66208 16.4117 3.66208 15.9685 3.93545 15.6951ZM9.6 14.4998C9.6 15.1073 9.10751 15.5998 8.5 15.5998C7.89249 15.5998 7.4 15.1073 7.4 14.4998C7.4 13.8923 7.89249 13.3998 8.5 13.3998C9.10751 13.3998 9.6 13.8923 9.6 14.4998ZM11 14.4998C11 15.8805 9.88071 16.9998 8.5 16.9998C7.11929 16.9998 6 15.8805 6 14.4998C6 13.1191 7.11929 11.9998 8.5 11.9998C9.88071 11.9998 11 13.1191 11 14.4998Z"
    fill="currentColor"
  ></path>
</symbol>
</svg>
