<svg xmlns="http://www.w3.org/2000/svg" style="display: none;">
  <symbol id="logo-icon" viewBox="0 0 534 534">
    <path d="m262.118 32.764-262.118 131.057v327.65h524.235v-327.641l-262.117-131.065zm32.764 393.177v-65.529h32.765v65.529zm131.059 0v-65.529h-65.529v-65.529h-98.294v65.529h-32.765v65.529h-32.765v-65.529h-32.765v-65.529h-65.529v65.529 65.529h-32.765v-163.824h393.176v163.824z" fill="var(--theme-color)"/>
  </symbol>
  <symbol id="a1-icon" viewBox="0 0 20 20">
    <path d="M18.9677 3H17.4193C17.4193 3 17.1597 3.66169 16.9031 4.03226C16.3295 4.86087 14.8386 5.58065 14.8386 5.58065V7.64516L16.9031 6.6129V12.8065L18.9677 13.3226V3Z" fill="currentColor"></path><path fill-rule="evenodd" clip-rule="evenodd" d="M5 18.5L9.67739 4.54834L12.1426 5.04139C12.2139 5.05563 12.2718 5.10737 12.2939 5.17655L16.3036 17.7067C16.3449 17.8358 16.2486 17.9677 16.1131 17.9677H13.8064L12.7742 15.387H9.16126L8.17434 18.3478C8.14724 18.4291 8.07134 18.4841 7.98563 18.4846L5 18.5ZM11.036 9.24658L9.76514 13.0593C9.72197 13.1888 9.81836 13.3225 9.95487 13.3225H12.4967C12.6332 13.3225 12.7296 13.1888 12.6864 13.0593L11.4155 9.24658C11.3547 9.06424 11.0968 9.06424 11.036 9.24658Z" fill="currentColor"></path>
  </symbol>
  <symbol id="call-icon" viewBox="0 0 241.73 241.73">
    <g>
      <path d="M234.771,181.213l-34.938-34.953c-4.692-4.668-10.975-7.24-17.689-7.24
        c-6.987,0-13.584,2.751-18.572,7.742l-13.6,13.597c-10.568-5.874-24.614-13.953-39.197-28.536
        c-14.566-14.571-22.646-28.576-28.55-39.201l13.613-13.603c10.121-10.142,10.328-26.413,0.463-36.269L61.37,7.818
        c-4.679-4.692-10.962-7.276-17.693-7.276c-6.831,0-13.293,2.63-18.252,7.417c-3,2.416-18.055,15.706-23.666,43.114
        c-7.856,38.363,10.194,75.274,62.302,127.403c58.209,58.191,107.902,62.714,121.746,62.714c2.882,0,4.621-0.178,5.085-0.232
        c27.147-3.182,36.867-15.238,43.964-24.041C244.052,205.508,244.02,190.496,234.771,181.213z M223.178,207.502
        c-6.671,8.274-12.971,16.088-34.031,18.557c-0.011,0.001-1.163,0.13-3.34,0.13c-12.386,0-57.008-4.206-111.139-58.32
        C26.615,119.796,9.749,86.829,16.454,54.081c4.894-23.906,17.887-34.067,18.392-34.453l0.448-0.331l0.393-0.394
        c2.169-2.167,5.006-3.361,7.989-3.361c2.716,0,5.228,1.018,7.08,2.876l34.939,34.94c4.02,4.016,3.806,10.774-0.471,15.06
        L69.829,83.8l-0.253,0.265c-4.012,4.419-3.54,10.391-1.33,14.28c6.377,11.508,15.112,27.269,31.92,44.082
        c16.752,16.752,32.49,25.48,43.966,31.845c1.149,0.645,3.521,1.727,6.49,1.727c3.506,0,6.725-1.484,9.108-4.189l14.448-14.444
        c2.157-2.158,4.985-3.347,7.964-3.347c2.722,0,5.247,1.021,7.095,2.859l34.915,34.93
        C228.587,196.259,226.756,203.064,223.178,207.502z" fill="currentColor"/>
      <path d="M146.447,37.293c12.887,1.483,28.061,9.289,38.657,19.886c10.695,10.695,18.52,26.023,19.933,39.05
        c0.417,3.843,3.667,6.691,7.447,6.691c0.27,0,0.544-0.015,0.818-0.044c4.118-0.447,7.094-4.147,6.647-8.265
        c-1.787-16.467-11.075-34.874-24.238-48.038c-13.04-13.041-31.259-22.306-47.549-24.181c-4.113-0.477-7.834,2.479-8.308,6.593
        C139.38,33.099,142.331,36.819,146.447,37.293z" fill="currentColor"/>
      <path d="M139.44,68.711c6.97,0.803,16.616,5.973,22.935,12.292c6.373,6.374,11.553,16.112,12.316,23.157
        c0.417,3.844,3.667,6.692,7.447,6.692c0.27,0,0.543-0.015,0.817-0.044c4.118-0.447,7.095-4.147,6.648-8.265
        c-1.304-12.028-9.289-24.813-16.623-32.147c-7.268-7.269-19.928-15.216-31.825-16.587c-4.119-0.479-7.835,2.478-8.309,6.592
        C132.373,64.516,135.325,68.237,139.44,68.711z" fill="currentColor"/>
    </g>
  </symbol>
  <symbol id="email-icon" viewBox="0 0 477.867 477.867">
    <g>
      <g>
        <path d="M460.8,68.267H17.067C7.641,68.267,0,75.908,0,85.333v307.2c0,9.426,7.641,17.067,17.067,17.067H460.8
          c9.426,0,17.067-7.641,17.067-17.067v-307.2C477.867,75.908,470.226,68.267,460.8,68.267z M432.811,102.4L238.933,251.529
          L45.056,102.4H432.811z M443.733,375.467h-409.6V137.062L228.54,286.6c6.13,4.707,14.657,4.707,20.787,0l194.406-149.538V375.467z
          " fill="currentColor"/>
      </g>
    </g>
  </symbol>
  <symbol id="facebook-icon" viewBox="0 0 24 24">
    <path d="m15.997 3.985h2.191v-3.816c-.378-.052-1.678-.169-3.192-.169-6.932 0-5.046 7.85-5.322 9h-3.487v4.266h3.486v10.734h4.274v-10.733h3.345l.531-4.266h-3.877c.188-2.824-.761-5.016 2.051-5.016z" fill="currentColor"/>  </symbol>
  <symbol id="instagram-icon"  viewBox="0 0 511 511.9">
		<path d="m510.949219 150.5c-1.199219-27.199219-5.597657-45.898438-11.898438-62.101562-6.5-17.199219-16.5-32.597657-29.601562-45.398438-12.800781-13-28.300781-23.101562-45.300781-29.5-16.296876-6.300781-34.898438-10.699219-62.097657-11.898438-27.402343-1.300781-36.101562-1.601562-105.601562-1.601562s-78.199219.300781-105.5 1.5c-27.199219 1.199219-45.898438 5.601562-62.097657 11.898438-17.203124 6.5-32.601562 16.5-45.402343 29.601562-13 12.800781-23.097657 28.300781-29.5 45.300781-6.300781 16.300781-10.699219 34.898438-11.898438 62.097657-1.300781 27.402343-1.601562 36.101562-1.601562 105.601562s.300781 78.199219 1.5 105.5c1.199219 27.199219 5.601562 45.898438 11.902343 62.101562 6.5 17.199219 16.597657 32.597657 29.597657 45.398438 12.800781 13 28.300781 23.101562 45.300781 29.5 16.300781 6.300781 34.898438 10.699219 62.101562 11.898438 27.296876 1.203124 36 1.5 105.5 1.5s78.199219-.296876 105.5-1.5c27.199219-1.199219 45.898438-5.597657 62.097657-11.898438 34.402343-13.300781 61.601562-40.5 74.902343-74.898438 6.296876-16.300781 10.699219-34.902343 11.898438-62.101562 1.199219-27.300781 1.5-36 1.5-105.5s-.101562-78.199219-1.300781-105.5zm-46.097657 209c-1.101562 25-5.300781 38.5-8.800781 47.5-8.601562 22.300781-26.300781 40-48.601562 48.601562-9 3.5-22.597657 7.699219-47.5 8.796876-27 1.203124-35.097657 1.5-103.398438 1.5s-76.5-.296876-103.402343-1.5c-25-1.097657-38.5-5.296876-47.5-8.796876-11.097657-4.101562-21.199219-10.601562-29.398438-19.101562-8.5-8.300781-15-18.300781-19.101562-29.398438-3.5-9-7.699219-22.601562-8.796876-47.5-1.203124-27-1.5-35.101562-1.5-103.402343s.296876-76.5 1.5-103.398438c1.097657-25 5.296876-38.5 8.796876-47.5 4.101562-11.101562 10.601562-21.199219 19.203124-29.402343 8.296876-8.5 18.296876-15 29.398438-19.097657 9-3.5 22.601562-7.699219 47.5-8.800781 27-1.199219 35.101562-1.5 103.398438-1.5 68.402343 0 76.5.300781 103.402343 1.5 25 1.101562 38.5 5.300781 47.5 8.800781 11.097657 4.097657 21.199219 10.597657 29.398438 19.097657 8.5 8.300781 15 18.300781 19.101562 29.402343 3.5 9 7.699219 22.597657 8.800781 47.5 1.199219 27 1.5 35.097657 1.5 103.398438s-.300781 76.300781-1.5 103.300781zm0 0" fill="currentColor"/><path d="m256.449219 124.5c-72.597657 0-131.5 58.898438-131.5 131.5s58.902343 131.5 131.5 131.5c72.601562 0 131.5-58.898438 131.5-131.5s-58.898438-131.5-131.5-131.5zm0 216.800781c-47.097657 0-85.300781-38.199219-85.300781-85.300781s38.203124-85.300781 85.300781-85.300781c47.101562 0 85.300781 38.199219 85.300781 85.300781s-38.199219 85.300781-85.300781 85.300781zm0 0" fill="currentColor"/><path d="m423.851562 119.300781c0 16.953125-13.746093 30.699219-30.703124 30.699219-16.953126 0-30.699219-13.746094-30.699219-30.699219 0-16.957031 13.746093-30.699219 30.699219-30.699219 16.957031 0 30.703124 13.742188 30.703124 30.699219zm0 0" fill="currentColor"/>
  </symbol>
  <symbol id="youtube-icon" viewBox="0 0 96.875 96.875">
    <path d="M95.201,25.538c-1.186-5.152-5.4-8.953-10.473-9.52c-12.013-1.341-24.172-1.348-36.275-1.341
    c-12.105-0.007-24.266,0-36.279,1.341c-5.07,0.567-9.281,4.368-10.467,9.52C0.019,32.875,0,40.884,0,48.438
    C0,55.992,0,64,1.688,71.336c1.184,5.151,5.396,8.952,10.469,9.52c12.012,1.342,24.172,1.349,36.277,1.342
    c12.107,0.007,24.264,0,36.275-1.342c5.07-0.567,9.285-4.368,10.471-9.52c1.689-7.337,1.695-15.345,1.695-22.898
    C96.875,40.884,96.889,32.875,95.201,25.538z M35.936,63.474c0-10.716,0-21.32,0-32.037c10.267,5.357,20.466,10.678,30.798,16.068
    C56.434,52.847,46.23,58.136,35.936,63.474z" fill="currentColor"/>
  </symbol>
  <symbol id="life-icon" viewBox="0 0 24 24">
    <path d="M11.0293 14.7883C11.0293 15.6251 10.3517 16.3024 9.5147 16.3024C8.67823 16.3024 8 15.6251 8 14.7883C8 13.9517 8.67811 13.2734 9.5147 13.2734C10.3517 13.2734 11.0293 13.9516 11.0293 14.7883ZM11.0293 8.21145C11.0293 9.04792 10.3517 9.72628 9.5147 9.72628C8.67823 9.72628 8 9.04804 8 8.21145C8 7.37535 8.67811 6.69663 9.5147 6.69663C10.3517 6.69663 11.0293 7.37523 11.0293 8.21145ZM12.8097 3C14.7077 5.21166 15.847 8.40396 15.847 11.4997C15.847 14.5957 14.7077 17.7886 12.8097 20L11.5593 19.0736C12.8979 16.7092 13.5688 14.5199 13.5688 11.4998C13.5688 8.48069 12.8979 6.29118 11.5593 3.92605L12.8097 3Z" fill="currentColor"></path>
  </symbol>
  <symbol id="message-icon" viewBox="0 0 612 612">
    <path d="M401.625,325.125h-191.25c-10.557,0-19.125,8.568-19.125,19.125s8.568,19.125,19.125,19.125h191.25
      c10.557,0,19.125-8.568,19.125-19.125S412.182,325.125,401.625,325.125z M439.875,210.375h-267.75
      c-10.557,0-19.125,8.568-19.125,19.125s8.568,19.125,19.125,19.125h267.75c10.557,0,19.125-8.568,19.125-19.125
      S450.432,210.375,439.875,210.375z M306,0C137.012,0,0,119.875,0,267.75c0,84.514,44.848,159.751,114.75,208.826V612
      l134.047-81.339c18.552,3.061,37.638,4.839,57.203,4.839c169.008,0,306-119.875,306-267.75C612,119.875,475.008,0,306,0z
      M306,497.25c-22.338,0-43.911-2.601-64.643-7.019l-90.041,54.123l1.205-88.701C83.5,414.133,38.25,345.513,38.25,267.75
      c0-126.741,119.875-229.5,267.75-229.5c147.875,0,267.75,102.759,267.75,229.5S453.875,497.25,306,497.25z" fill="currentColor"/>
  </symbol>
  <symbol id="odnoklassniki-icon" viewBox="0 0 512.008 512.008">
    <path style="fill:currentColor;" d="M256.002,256c70.592,0,128-57.408,128-128s-57.408-128-128-128s-128,57.408-128,128
      S185.41,256,256.002,256z M256.002,64c35.296,0,64,28.704,64,64s-28.704,64-64,64s-64-28.704-64-64S220.706,64,256.002,64z"/>
    <path style="fill:currentColor;" d="M425.73,252.448c-12.512-12.512-32.736-12.512-45.248,0c-68.608,68.608-180.288,68.608-248.928,0
      c-12.512-12.512-32.736-12.512-45.248,0s-12.512,32.736,0,45.28c39.808,39.808,90.272,62.496,142.304,68.416l-91.232,91.232
      c-12.512,12.512-12.512,32.736,0,45.248c12.512,12.512,32.736,12.512,45.248,0l73.376-73.376l73.376,73.376
      c6.24,6.24,14.432,9.376,22.624,9.376s16.384-3.136,22.624-9.376c12.512-12.512,12.512-32.736,0-45.248l-91.232-91.232
      c52.032-5.92,102.496-28.608,142.304-68.416C438.21,285.216,438.21,264.96,425.73,252.448z"/>
  </symbol>
  <symbol id="telegram-icon" viewBox="0 0 24 24">
    <circle cx="12" cy="12" fill="currentColor" r="12"/><path d="m5.491 11.74 11.57-4.461c.537-.194 1.006.131.832.943l.001-.001-1.97 9.281c-.146.658-.537.818-1.084.508l-3-2.211-1.447 1.394c-.16.16-.295.295-.605.295l.213-3.053 5.56-5.023c.242-.213-.054-.333-.373-.121l-6.871 4.326-2.962-.924c-.643-.204-.657-.643.136-.953z" fill="#fff"/>  </symbol>
  <symbol id="telephone-icon" viewBox="0 0 512 512">
    <path d="M512,194.829c0-81.106-65.984-147.09-147.09-147.09H147.09C65.984,47.74,0,113.724,0,194.83
      c0,23.95,19.485,43.435,43.435,43.435h41.46l-30.018,67.978c-10.608,24.024-15.987,49.521-15.987,75.783v27.854
      c0,29.987,24.396,54.383,54.383,54.383h325.446c29.988,0,54.384-24.396,54.384-54.383v-27.854
      c0-26.263-5.379-51.759-15.988-75.783l-30.018-67.978h41.467C492.515,238.264,512,218.78,512,194.829z M147.09,81.275H364.91
      v0.001c47.234,0,87.818,28.992,104.909,70.112h-96.639c-8.259-8.549-19.828-13.881-32.626-13.881H171.446
      c-12.821,0-24.409,5.353-32.672,13.929c-0.322-0.018-0.641-0.049-0.967-0.049H42.182C59.272,110.266,99.857,81.275,147.09,81.275z
        M43.435,204.727c-5.458,0-9.898-4.439-9.898-9.898c0-3.337,0.153-6.639,0.437-9.904h92.081v12.943
      c0,3.782-3.078,6.858-6.859,6.858H43.435z M439.567,382.023v27.854c0,11.494-9.351,20.846-20.847,20.846H93.273
      c-11.494,0-20.846-9.351-20.846-20.846v-27.854c0-21.567,4.417-42.506,13.129-62.235l36.035-81.601
      c21.164-1.244,38.002-18.849,38.002-40.318v-14.968c0-6.537,5.318-11.855,11.854-11.855h169.106
      c6.537,0,11.854,5.318,11.854,11.855v14.968c0,21.467,16.833,39.071,37.994,40.318l36.035,81.603
      C435.15,339.517,439.567,360.455,439.567,382.023z M392.805,204.728v-0.001c-3.782,0-6.859-3.076-6.859-6.858v-12.943h92.081
      c0.284,3.265,0.437,6.567,0.437,9.905c0,5.458-4.44,9.898-9.898,9.898H392.805z" fill="currentColor"/>
    <circle cx="197.444" cy="255.295" r="18.552" fill="currentColor"/>
    <circle cx="256" cy="255.295" r="18.552" fill="currentColor"/>
    <circle cx="314.556" cy="255.295" r="18.552" fill="currentColor"/>
    <circle cx="197.444" cy="311.682" r="18.552" fill="currentColor"/>
    <circle cx="256" cy="311.682" r="18.552" fill="currentColor"/>
    <circle cx="314.556" cy="311.682" r="18.552" fill="currentColor"/>
    <circle cx="197.444" cy="368.069" r="18.552" fill="currentColor"/>
    <circle cx="256" cy="368.069" r="18.552" fill="currentColor"/>
    <circle cx="314.556" cy="368.069" r="18.552" fill="currentColor"/>
  </symbol>
  <symbol id="viber-icon" viewBox="0 0 24 24">
    <g fill="currentColor"><path d="m23.155 13.893c.716-6.027-.344-9.832-2.256-11.553l.001-.001c-3.086-2.939-13.508-3.374-17.2.132-1.658 1.715-2.242 4.232-2.306 7.348-.064 3.117-.14 8.956 5.301 10.54h.005l-.005 2.419s-.037.98.589 1.177c.716.232 1.04-.223 3.267-2.883 3.724.323 6.584-.417 6.909-.525.752-.252 5.007-.815 5.695-6.654zm-12.237 5.477s-2.357 2.939-3.09 3.702c-.24.248-.503.225-.499-.267 0-.323.018-4.016.018-4.016-4.613-1.322-4.341-6.294-4.291-8.895.05-2.602.526-4.733 1.93-6.168 3.239-3.037 12.376-2.358 14.704-.17 2.846 2.523 1.833 9.651 1.839 9.894-.585 4.874-4.033 5.183-4.667 5.394-.271.09-2.786.737-5.944.526z"/><path d="m12.222 4.297c-.385 0-.385.6 0 .605 2.987.023 5.447 2.105 5.474 5.924 0 .403.59.398.585-.005h-.001c-.032-4.115-2.718-6.501-6.058-6.524z"/><path d="m16.151 10.193c-.009.398.58.417.585.014.049-2.269-1.35-4.138-3.979-4.335-.385-.028-.425.577-.041.605 2.28.173 3.481 1.729 3.435 3.716z"/><path d="m15.521 12.774c-.494-.286-.997-.108-1.205.173l-.435.563c-.221.286-.634.248-.634.248-3.014-.797-3.82-3.951-3.82-3.951s-.037-.427.239-.656l.544-.45c.272-.216.444-.736.167-1.247-.74-1.337-1.237-1.798-1.49-2.152-.266-.333-.666-.408-1.082-.183h-.009c-.865.506-1.812 1.453-1.509 2.428.517 1.028 1.467 4.305 4.495 6.781 1.423 1.171 3.675 2.371 4.631 2.648l.009.014c.942.314 1.858-.67 2.347-1.561v-.007c.217-.431.145-.839-.172-1.106-.562-.548-1.41-1.153-2.076-1.542z"/><path d="m13.169 8.104c.961.056 1.427.558 1.477 1.589.018.403.603.375.585-.028-.064-1.346-.766-2.096-2.03-2.166-.385-.023-.421.582-.032.605z"/></g>
  </symbol>
  <symbol id="vk-icon" viewBox="0 0 511.962 511.962">
    <path style="fill:currentColor;" d="M250.503,400.807h30.592c0,0,9.248-1.024,13.952-6.112c4.352-4.672,4.192-13.44,4.192-13.44
      s-0.608-41.056,18.464-47.104c18.784-5.952,42.912,39.68,68.48,57.248c19.328,13.28,34.016,10.368,34.016,10.368l68.384-0.96
      c0,0,35.776-2.208,18.816-30.336c-1.376-2.304-9.888-20.8-50.848-58.816c-42.88-39.808-37.12-33.344,14.528-102.176
      c31.456-41.92,44.032-67.52,40.096-78.464c-3.744-10.432-26.88-7.68-26.88-7.68l-76.928,0.448c0,0-5.696-0.768-9.952,1.76
      c-4.128,2.496-6.784,8.256-6.784,8.256s-12.192,32.448-28.448,60.032c-34.272,58.208-48,61.28-53.6,57.664
      c-13.024-8.416-9.76-33.856-9.76-51.904c0-56.416,8.544-79.936-16.672-86.016c-8.384-2.016-14.528-3.36-35.936-3.584
      c-27.456-0.288-50.72,0.096-63.872,6.528c-8.768,4.288-15.52,13.856-11.392,14.4c5.088,0.672,16.608,3.104,22.72,11.424
      c7.904,10.72,7.616,34.848,7.616,34.848s4.544,66.4-10.592,74.656c-10.4,5.664-24.64-5.888-55.2-58.72
      c-15.648-27.04-27.488-56.96-27.488-56.96s-2.272-5.568-6.336-8.544c-4.928-3.616-11.84-4.768-11.84-4.768l-73.152,0.448
      c0,0-10.976,0.32-15.008,5.088c-3.584,4.256-0.288,13.024-0.288,13.024s57.28,133.984,122.112,201.536
      C182.983,404.871,250.503,400.807,250.503,400.807L250.503,400.807z"/>
  </symbol>
</svg>
